<?xml version="1.0" encoding="utf-8"?>
<!-- Generator: Adobe Illustrator 15.1.0, SVG Export Plug-In . SVG Version: 6.00 Build 0)  -->
<!DOCTYPE svg PUBLIC "-//W3C//DTD SVG 1.1//EN" "http://www.w3.org/Graphics/SVG/1.1/DTD/svg11.dtd">
<svg version="1.1" id="Layer_1" xmlns="http://www.w3.org/2000/svg" xmlns:xlink="http://www.w3.org/1999/xlink" x="0px" y="0px"
	 width="100px" height="100px" viewBox="0 0 100 100" enable-background="new 0 0 100 100" xml:space="preserve">
<g id="pencil">
	<path  d="M95.688,23.678c3.083-3.091,3.083-8.037,0-11.12l-8.036-8.028c-3.085-3.092-8.341-3.092-11.113,0
		l-4.014,4.014L91.978,28L95.688,23.678z"/>
	<polygon  points="83.518,35.595 64.311,16.383 68.889,11.793 88.1,31.013 	"/>
	<path  d="M2.127,94.697c-0.323,0.931,0,1.854,0.607,2.477c0.308,0.308,0.927,0.614,1.538,0.614
		c0.307,0,0.615,0,0.931,0l23.155-8.335L10.448,71.542L2.127,94.697z"/>
	<polygon  points="12.979,67.544 60.804,19.727 68.88,27.803 21.068,75.627 	"/>
	<polygon  points="72.279,30.807 80.355,38.891 32.535,86.708 24.455,78.624 	"/>
</g>
<polygon id="x"  points="90,20.881 79.115,10.002 50,39.124 20.878,10.002 10,20.881 39.122,49.998 10,79.119 
	20.878,89.998 50,60.881 79.115,89.998 90,79.119 60.873,49.998 "/>
<g id="logo">
	<path  d="M11.61,36.662c-5.307,0-9.61,4.303-9.61,9.609c0,8.037,8.14,17.067,9.61,17.067
		c1.43,0,9.611-9.195,9.611-17.067C21.221,40.965,16.919,36.662,11.61,36.662 M12.787,52.312v-3.804c0-0.65-0.526-1.179-1.177-1.179
		c-0.65,0-1.178,0.528-1.178,1.179v3.804c-3.123-0.557-5.49-3.282-5.49-6.563c0-3.28,2.368-6.006,5.49-6.562v3.804
		c0,0.65,0.527,1.178,1.178,1.178c0.651,0,1.177-0.527,1.177-1.178v-3.804c3.123,0.557,5.493,3.282,5.493,6.562
		C18.28,49.03,15.91,51.756,12.787,52.312"/>
	<g>
		<path  d="M38.618,40.954h2.409v17.211h-2.409v-7.948h-8.419v7.948H27.79V40.954h2.409v7.177h8.419V40.954z"/>
		<path  d="M47.782,58.165V40.954h10.506v2.061h-8.097v5.116h7.202v2.012h-7.202v5.96h8.717v2.062H47.782z"/>
		<path  d="M72.866,50.962c0.265,0.332,0.6,0.766,1.006,1.304c0.405,0.538,0.823,1.134,1.254,1.788
			s0.857,1.337,1.279,2.049s0.782,1.399,1.08,2.062h-2.632c-0.332-0.63-0.691-1.267-1.081-1.913c-0.389-0.646-0.782-1.262-1.18-1.85
			s-0.79-1.139-1.18-1.652c-0.389-0.513-0.741-0.96-1.055-1.341c-0.216,0.017-0.436,0.025-0.658,0.025c-0.224,0-0.452,0-0.684,0
			h-2.16v6.73h-2.409V41.202c0.679-0.166,1.436-0.277,2.272-0.335c0.836-0.058,1.602-0.087,2.297-0.087
			c2.417,0,4.26,0.456,5.526,1.366c1.267,0.911,1.899,2.269,1.899,4.073c0,1.142-0.302,2.12-0.906,2.931
			C74.932,49.961,74.042,50.565,72.866,50.962z M69.216,42.891c-1.027,0-1.813,0.025-2.359,0.075v6.482h1.713
			c0.828,0,1.573-0.041,2.235-0.124c0.662-0.083,1.221-0.24,1.677-0.472c0.455-0.232,0.808-0.559,1.056-0.981
			c0.248-0.422,0.372-0.981,0.372-1.676c0-0.646-0.124-1.184-0.372-1.614s-0.584-0.77-1.006-1.018
			c-0.423-0.249-0.919-0.422-1.49-0.522C70.47,42.94,69.861,42.891,69.216,42.891z"/>
		<path  d="M81.559,49.547c0-1.474,0.22-2.773,0.658-3.899c0.438-1.125,1.034-2.065,1.788-2.819
			c0.753-0.753,1.631-1.32,2.633-1.701s2.065-0.571,3.191-0.571c1.109,0,2.156,0.19,3.142,0.571s1.851,0.948,2.596,1.701
			c0.745,0.754,1.337,1.693,1.775,2.819C97.78,46.773,98,48.073,98,49.547s-0.22,2.773-0.658,3.899s-1.03,2.065-1.775,2.818
			c-0.745,0.754-1.61,1.32-2.596,1.701s-2.032,0.571-3.142,0.571c-1.126,0-2.189-0.19-3.191-0.571s-1.88-0.947-2.633-1.701
			c-0.754-0.753-1.35-1.692-1.788-2.818S81.559,51.021,81.559,49.547z M84.092,49.547c0,1.043,0.133,1.991,0.397,2.844
			s0.642,1.577,1.13,2.173c0.488,0.597,1.085,1.056,1.788,1.378c0.704,0.323,1.494,0.484,2.372,0.484s1.664-0.161,2.359-0.484
			c0.695-0.322,1.287-0.781,1.776-1.378c0.487-0.596,0.864-1.32,1.13-2.173c0.265-0.853,0.397-1.801,0.397-2.844
			c0-1.043-0.133-1.991-0.397-2.844c-0.266-0.853-0.643-1.577-1.13-2.173c-0.489-0.596-1.081-1.055-1.776-1.378
			c-0.695-0.323-1.481-0.484-2.359-0.484s-1.668,0.161-2.372,0.484c-0.703,0.323-1.3,0.782-1.788,1.378s-0.865,1.321-1.13,2.173
			C84.225,47.556,84.092,48.503,84.092,49.547z"/>
	</g>
</g>
<g id="reward">
	<path  d="M90.538,10.505c-3.224-0.711-6.947-0.255-10.453,1.068c0.028-1.9,0.028-3.752-0.036-5.521H49.992H19.937
		c-0.047,1.769-0.062,3.621-0.025,5.521c-3.507-1.323-7.232-1.779-10.456-1.068c-4.773,1.047-8.016,4.329-9.112,9.226
		c-1.455,6.391,1.739,13.716,8.98,20.635c5.704,5.436,13.366,9.974,21.455,12.783c3.351,4.713,7.651,8.521,13.083,10.842
		c-0.79,2.901-3.579,11.284-10.309,16.428h16.438h16.443c-6.725-5.144-9.521-13.526-10.297-16.428
		c5.435-2.32,9.731-6.129,13.068-10.852c8.088-2.799,15.75-7.337,21.468-12.773c7.241-6.919,10.437-14.245,8.984-20.635
		C98.545,14.834,95.303,11.553,90.538,10.505z M14.15,35.311c-5.245-5.012-7.86-10.257-6.998-14.039
		c0.504-2.23,1.718-3.477,3.805-3.941c2.764-0.614,6.37,0.313,9.343,2.146c0.68,8.017,2.255,16.374,5.21,23.794
		C21.255,41.057,17.342,38.354,14.15,35.311z M85.841,35.311c-3.183,3.044-7.098,5.746-11.359,7.97
		c2.965-7.431,4.541-15.788,5.215-23.795c2.976-1.842,6.577-2.769,9.333-2.155c2.096,0.465,3.305,1.711,3.811,3.941
		C93.701,25.053,91.081,30.298,85.841,35.311z"/>
	<rect x="28.882" y="84.822"  width="42.221" height="9.125"/>
</g>
<path id="dollar" d="M31.108,15.523C35.02,11.248,40.505,9.067,47.553,9V2h4.997v6.896c6.975,0.488,12.33,2.544,16.069,6.159
	c3.73,3.625,5.69,8.407,5.863,14.355h-9.2c-0.249-2.668-0.967-4.964-2.162-6.896c-2.209-3.539-5.729-5.394-10.57-5.576V42.56
	c8.132,2.276,13.659,4.418,16.567,6.417c4.733,3.3,7.105,8.168,7.105,14.623c0,9.324-3.032,15.952-9.104,19.883
	c-3.366,2.171-8.225,3.605-14.568,4.313V98h-4.997V87.796c-10.205-0.67-17.128-4.285-20.777-10.836
	c-1.999-3.548-2.998-8.33-2.998-14.364h9.31c0.282,4.811,1.042,8.311,2.276,10.52c2.19,3.969,6.254,6.188,12.189,6.686V51.129
	c-7.613-1.435-13.231-3.835-16.866-7.202c-3.625-3.367-5.437-8.034-5.437-13.992C25.25,24.608,27.207,19.798,31.108,15.523z
	 M38.19,37.453c2.319,1.97,5.437,3.337,9.363,4.103V16.833c-4.634,0.182-7.928,1.578-9.894,4.208
	c-1.96,2.63-2.941,5.385-2.941,8.263C34.719,32.776,35.876,35.492,38.19,37.453z M64.966,73.488
	c1.187-2.104,1.789-4.543,1.789-7.316c0-4.38-1.616-7.708-4.84-9.994c-1.864-1.329-4.982-2.592-9.365-3.787v27.668
	C58.549,79.781,62.681,77.591,64.966,73.488z"/>
	

<polygon id="plus"  points="98.875,57.694 98.87,42.305 57.69,42.31 57.69,1.125 42.306,1.125 42.31,42.306 
	1.125,42.306 1.125,57.69 42.306,57.694 42.305,98.87 57.694,98.875 57.69,57.687 "/>
<path id="cancel" d="M84.561,15.44c-19.088-19.087-50.033-19.087-69.12,0c-19.087,19.087-19.087,50.033,0,69.121
	c19.086,19.086,50.032,19.086,69.12-0.001C103.646,65.473,103.646,34.527,84.561,15.44z M73.857,26.144
	c11.303,11.303,12.9,28.629,4.809,41.644L32.212,21.334C45.228,13.242,62.553,14.839,73.857,26.144z M26.144,73.857
	c-11.305-11.305-12.9-28.629-4.81-41.645l46.453,46.454C54.771,86.757,37.447,85.16,26.144,73.857z"/>
<g id="graph">
	<polygon points="16.509,83.491 16.509,1.125 1.125,1.125 1.125,98.875 98.875,98.875 98.875,83.491 	"/>
	<polygon points="95.342,19.357 63.576,51.123 54.481,42.027 32.447,64.062 21.505,64.062 21.505,69.059 
		34.518,69.059 54.481,49.094 63.576,58.189 98.875,22.891 	"/>
</g>
</svg>
